<svg id="Calque_1" data-name="Calque 1" xmlns="http://www.w3.org/2000/svg" viewBox="0 0 738.64 37.69"><defs><style>.cls-1{fill:#fff;}</style></defs><title>autres_tutos</title><path class="cls-1" d="M172.15,502.58l12-9.93-1.82,9.93Zm34.42-20.49H177.72l-47,36.22h22.43l5.64-4.64h21.52l-.87,4.64h24.77l2.39-36.22" transform="translate(-130.68 -481.42)"/><path class="cls-1" d="M284.78,482.1H264.15l-7.65,14.22a15.69,15.69,0,0,1-2.07,3,14.83,14.83,0,0,1-3.15,2.68,16.3,16.3,0,0,1-4.42,1.94,21.87,21.87,0,0,1-5.87.75h-.11a14,14,0,0,1-5.1-.75,3.79,3.79,0,0,1-2.23-1.94,4.15,4.15,0,0,1-.09-2.68,11.76,11.76,0,0,1,1.3-3l8.32-14.22H222.44l-10.17,16.1a26.7,26.7,0,0,0-3,6.23,10.29,10.29,0,0,0-.06,6.78c.85,2.17,2.74,4.11,6.25,5.52S224.1,519,231.35,519h2.93a69.38,69.38,0,0,0,18.49-2.28,43.71,43.71,0,0,0,12.49-5.52,33.83,33.83,0,0,0,7.6-6.78,32.08,32.08,0,0,0,4-6.23l7.92-16.1" transform="translate(-130.68 -481.42)"/><polygon class="cls-1" points="212.23 0.68 157.02 0.68 151.28 12.51 169.08 12.51 158.2 36.9 180.4 36.9 190.16 12.51 207.96 12.51 212.23 0.68"/><path class="cls-1" d="M362.49,495.88l1.37-4.45h15.28a8,8,0,0,1,1.74.16,2.64,2.64,0,0,1,1.06.45,1.24,1.24,0,0,1,.46.7,1.84,1.84,0,0,1,0,.9,2.52,2.52,0,0,1-.43.89,2.69,2.69,0,0,1-.83.71,4.52,4.52,0,0,1-1.31.47,9.18,9.18,0,0,1-1.87.17H362.49m28.12-13.79H346.2l-12.81,36.22h22.2l3.76-12.21h12.07a13.27,13.27,0,0,1,3.73.44,4.69,4.69,0,0,1,2.2,1.26,3.45,3.45,0,0,1,.87,2,7.22,7.22,0,0,1-.27,2.64l-1.23,4.67c0,.14-.07.28-.1.4a2.38,2.38,0,0,0-.05.33.82.82,0,0,0,0,.27.54.54,0,0,0,.11.22h22.84l.07-.31a4,4,0,0,1-.18-.63,4.19,4.19,0,0,1-.08-.75,6.94,6.94,0,0,1,.06-1c0-.37.12-.78.22-1.26l1.26-5.78a8.49,8.49,0,0,0,.12-3.36,5.82,5.82,0,0,0-1.25-2.69,7.72,7.72,0,0,0-2.65-2,15.59,15.59,0,0,0-4.08-1.23,22.52,22.52,0,0,0,3.31-.83,18.15,18.15,0,0,0,3.49-1.57,11.49,11.49,0,0,0,2.95-2.42,7.8,7.8,0,0,0,1.7-3.39l.09-.42a6.27,6.27,0,0,0-.34-4.26,6.06,6.06,0,0,0-2.85-2.63,16,16,0,0,0-4.73-1.35,41.34,41.34,0,0,0-6-.39" transform="translate(-130.68 -481.42)"/><polygon class="cls-1" points="327.72 0.68 279.27 0.68 271.65 36.9 324.29 36.9 325.38 26.09 295.28 26.09 295.81 22.89 325.13 22.89 326.14 12.98 297.44 12.98 297.89 10.24 326.75 10.24 327.72 0.68"/><path class="cls-1" d="M493.63,481.51h-6.85a90.46,90.46,0,0,0-12.22.7,31.32,31.32,0,0,0-8,2A11.18,11.18,0,0,0,462,487.5a8.21,8.21,0,0,0-1.68,4.39l0,.43a8.93,8.93,0,0,0,.44,4,7.69,7.69,0,0,0,2.79,3.53,17.34,17.34,0,0,0,6.15,2.6,51.78,51.78,0,0,0,10.5,1.24l8.88.25a38.12,38.12,0,0,1,4.28.34,9.14,9.14,0,0,1,2.34.6,2,2,0,0,1,1,.79,1.73,1.73,0,0,1,.19.91v.15a1.68,1.68,0,0,1-.33,1,2.75,2.75,0,0,1-1.08.84,7.48,7.48,0,0,1-2,.59,19.72,19.72,0,0,1-3.16.22,13.29,13.29,0,0,1-3.56-.41,5,5,0,0,1-2-1,3,3,0,0,1-.87-1.31,3.66,3.66,0,0,1-.16-1.3h-25.3l0,.4a9.87,9.87,0,0,0,.38,4.09A9,9,0,0,0,462,514.2a21.71,21.71,0,0,0,8.33,3.49,70.58,70.58,0,0,0,15.53,1.43h7.67a82.74,82.74,0,0,0,15.08-1.16,27.4,27.4,0,0,0,8.95-3.05,10.49,10.49,0,0,0,4.21-4.28,9.81,9.81,0,0,0,.94-4.86l0-.7a9.75,9.75,0,0,0-1.35-4.85,9.42,9.42,0,0,0-3.86-3.38,23.7,23.7,0,0,0-6.79-2.05,71.75,71.75,0,0,0-10.19-.85l-8.31-.19c-1.59,0-2.89-.11-3.93-.21a13.48,13.48,0,0,1-2.43-.43,2.78,2.78,0,0,1-1.22-.64,1.09,1.09,0,0,1-.31-.85v-.09a1.31,1.31,0,0,1,.26-.78,1.88,1.88,0,0,1,.89-.57,8,8,0,0,1,1.82-.35c.79-.08,1.79-.12,3-.12a15.85,15.85,0,0,1,3.24.28,5.37,5.37,0,0,1,1.85.7,2.43,2.43,0,0,1,.86.91,2.72,2.72,0,0,1,.27.92h24.1v-.23a7.94,7.94,0,0,0-1.3-4.23,10.2,10.2,0,0,0-4.23-3.42,29.32,29.32,0,0,0-8.19-2.29,88.77,88.77,0,0,0-13.23-.84" transform="translate(-130.68 -481.42)"/><polygon class="cls-1" points="464.77 0.68 409.56 0.68 410.54 12.51 428.34 12.51 431.31 36.9 453.51 36.9 449.41 12.51 467.21 12.51 464.77 0.68"/><path class="cls-1" d="M660.7,482.1H640.07l4.37,14.22a9,9,0,0,1,.45,3A4.8,4.8,0,0,1,644,502a5.71,5.71,0,0,1-2.78,1.94,15.51,15.51,0,0,1-5.24.75h-.11a20,20,0,0,1-5.73-.75,11.61,11.61,0,0,1-3.87-1.94,9.61,9.61,0,0,1-2.36-2.68,11.41,11.41,0,0,1-1.22-3L619,482.1H598.36l3.43,16.1a23.33,23.33,0,0,0,2.26,6.23,22.27,22.27,0,0,0,5.67,6.78,31.44,31.44,0,0,0,10.91,5.52A62.21,62.21,0,0,0,638.47,519h2.92c7.26,0,12.63-.87,16.56-2.28s6.36-3.35,7.83-5.52a11.4,11.4,0,0,0,1.87-6.78,20.43,20.43,0,0,0-1.26-6.23l-5.69-16.1" transform="translate(-130.68 -481.42)"/><polygon class="cls-1" points="588.15 0.68 532.94 0.68 537.2 12.51 555 12.51 564.74 36.9 586.93 36.9 576.08 12.51 593.88 12.51 588.15 0.68"/><path class="cls-1" d="M766.72,506.81a26.32,26.32,0,0,1-6.11-.68,19.42,19.42,0,0,1-4.66-1.73,14.63,14.63,0,0,1-3.26-2.34,10.24,10.24,0,0,1-1.94-2.51l-.31-.58a5.49,5.49,0,0,1-.72-2.37,3,3,0,0,1,.75-2.14,5.64,5.64,0,0,1,2.77-1.54,20,20,0,0,1,5.35-.59,28.39,28.39,0,0,1,6,.59,19.4,19.4,0,0,1,4.53,1.54,14,14,0,0,1,3.2,2.14,10.17,10.17,0,0,1,2,2.37l.4.68a6.12,6.12,0,0,1,.88,2.51,3.2,3.2,0,0,1-.65,2.31,5.4,5.4,0,0,1-2.76,1.69,18.56,18.56,0,0,1-5.42.66m-12.83-25.39h-2.7A59.69,59.69,0,0,0,735.7,483c-3.69,1-6,2.46-7.43,4.14a7.58,7.58,0,0,0-1.69,5.59,16.6,16.6,0,0,0,1.79,5.91l.71,1.46a26.34,26.34,0,0,0,4.1,6.07,31,31,0,0,0,7.72,6.15,46.48,46.48,0,0,0,12.63,4.81,82,82,0,0,0,18.67,1.94h2.93c7.34,0,12.7-.73,16.52-1.94s6.05-2.89,7.24-4.81a8,8,0,0,0,.81-6.15,20,20,0,0,0-2.72-6.07l-.93-1.46a31.2,31.2,0,0,0-4.84-5.91,33.75,33.75,0,0,0-8-5.59A48.08,48.08,0,0,0,771.18,483a84,84,0,0,0-17.3-1.62" transform="translate(-130.68 -481.42)"/><path class="cls-1" d="M819.7,481.51h-6.85a79.1,79.1,0,0,0-11.7.7,17.54,17.54,0,0,0-6.53,2,4,4,0,0,0-2.14,3.26A7.88,7.88,0,0,0,794,491.9l.27.43a19.49,19.49,0,0,0,3.4,4,22.15,22.15,0,0,0,5.38,3.53,35.47,35.47,0,0,0,8.06,2.6,66.59,66.59,0,0,0,11.41,1.24l9.07.25a45.32,45.32,0,0,1,4.53.34,15.05,15.05,0,0,1,2.78.6,5.32,5.32,0,0,1,1.56.79,4.1,4.1,0,0,1,.86.91l.11.15a1.8,1.8,0,0,1,.4,1,1,1,0,0,1-.46.84,3.88,3.88,0,0,1-1.59.59,16.74,16.74,0,0,1-3,.22,17,17,0,0,1-3.86-.41,11.09,11.09,0,0,1-2.75-1,8.61,8.61,0,0,1-1.83-1.31,8.12,8.12,0,0,1-1.12-1.3h-25.3l.26.4a20.94,20.94,0,0,0,3.38,4.09A25.82,25.82,0,0,0,812,514.2a44.25,44.25,0,0,0,10.89,3.49,86.38,86.38,0,0,0,16.58,1.43h7.66a69,69,0,0,0,14.22-1.16c3.38-.74,5.51-1.79,6.71-3.05a4.4,4.4,0,0,0,1.07-4.28,13.48,13.48,0,0,0-2.62-4.86l-.54-.7a24.85,24.85,0,0,0-4.91-4.85,25.58,25.58,0,0,0-6.34-3.38,41.59,41.59,0,0,0-8.3-2.05,86,86,0,0,0-10.82-.85l-8.45-.19c-1.62,0-3-.11-4.09-.21a19.29,19.29,0,0,1-2.74-.43,6.28,6.28,0,0,1-1.69-.64,2.87,2.87,0,0,1-.94-.85l-.06-.09a1.38,1.38,0,0,1-.32-.78c0-.23.15-.42.47-.57a5.1,5.1,0,0,1,1.56-.35,28.69,28.69,0,0,1,3-.12,19.17,19.17,0,0,1,3.45.28,10.46,10.46,0,0,1,2.36.7,6.69,6.69,0,0,1,2.47,1.83h24.1l-.18-.23a20.52,20.52,0,0,0-4.4-4.23,27.16,27.16,0,0,0-6.74-3.42,49.8,49.8,0,0,0-9.87-2.29,102.07,102.07,0,0,0-13.85-.84" transform="translate(-130.68 -481.42)"/></svg>