<svg xmlns:xlink="http://www.w3.org/1999/xlink" width="9.47ex" height="2.843ex" style="font-size: 15px; vertical-align: -0.838ex;" viewBox="0 -863.1 4077.6 1223.9" role="img" focusable="false" xmlns="http://www.w3.org/2000/svg">
<defs>
<path stroke-width="1" id="E1-MJMAIN-7C" d="M139 -249H137Q125 -249 119 -235V251L120 737Q130 750 139 750Q152 750 159 735V-235Q151 -249 141 -249H139Z"></path>
<path stroke-width="1" id="E1-MJCAL-58" d="M324 614Q291 576 250 573Q231 573 231 584Q231 589 232 592Q235 601 244 614T271 643T324 671T400 683H403Q462 683 481 610Q485 594 490 545T498 454L501 413Q504 413 551 442T648 509T705 561Q707 565 707 578Q707 610 682 614Q667 614 667 626Q667 641 695 662T755 683Q765 683 775 680T796 662T807 623Q807 596 792 572T713 499T530 376L505 361V356Q508 346 511 278T524 148T557 75Q569 69 580 69Q585 69 593 77Q624 108 660 110Q667 110 670 110T676 106T678 94Q668 59 624 30T510 0Q487 0 471 9T445 32T430 71T422 117T417 173Q416 183 416 188Q413 214 411 244T407 286T405 299Q403 299 344 263T223 182T154 122Q152 118 152 105Q152 69 180 69Q183 69 187 66T191 60L192 58V56Q192 41 163 21T105 0Q94 0 84 3T63 21T52 60Q52 77 56 90T85 131T155 191Q197 223 259 263T362 327T402 352L391 489Q391 492 390 505T387 526T384 547T379 568T372 586T361 602T348 611Q346 612 341 613T333 614H324Z"></path>
<path stroke-width="1" id="E1-MJMAIN-3E" d="M84 520Q84 528 88 533T96 539L99 540Q106 540 253 471T544 334L687 265Q694 260 694 250T687 235Q685 233 395 96L107 -40H101Q83 -38 83 -20Q83 -19 83 -17Q82 -10 98 -1Q117 9 248 71Q326 108 378 132L626 250L378 368Q90 504 86 509Q84 513 84 520Z"></path>
<path stroke-width="1" id="E1-MJMAIN-32" d="M109 429Q82 429 66 447T50 491Q50 562 103 614T235 666Q326 666 387 610T449 465Q449 422 429 383T381 315T301 241Q265 210 201 149L142 93L218 92Q375 92 385 97Q392 99 409 186V189H449V186Q448 183 436 95T421 3V0H50V19V31Q50 38 56 46T86 81Q115 113 136 137Q145 147 170 174T204 211T233 244T261 278T284 308T305 340T320 369T333 401T340 431T343 464Q343 527 309 573T212 619Q179 619 154 602T119 569T109 550Q109 549 114 549Q132 549 151 535T170 489Q170 464 154 447T109 429Z"></path>
<path stroke-width="1" id="E1-MJMATHI-6D" d="M21 287Q22 293 24 303T36 341T56 388T88 425T132 442T175 435T205 417T221 395T229 376L231 369Q231 367 232 367L243 378Q303 442 384 442Q401 442 415 440T441 433T460 423T475 411T485 398T493 385T497 373T500 364T502 357L510 367Q573 442 659 442Q713 442 746 415T780 336Q780 285 742 178T704 50Q705 36 709 31T724 26Q752 26 776 56T815 138Q818 149 821 151T837 153Q857 153 857 145Q857 144 853 130Q845 101 831 73T785 17T716 -10Q669 -10 648 17T627 73Q627 92 663 193T700 345Q700 404 656 404H651Q565 404 506 303L499 291L466 157Q433 26 428 16Q415 -11 385 -11Q372 -11 364 -4T353 8T350 18Q350 29 384 161L420 307Q423 322 423 345Q423 404 379 404H374Q288 404 229 303L222 291L189 157Q156 26 151 16Q138 -11 108 -11Q95 -11 87 -5T76 7T74 17Q74 30 112 181Q151 335 151 342Q154 357 154 369Q154 405 129 405Q107 405 92 377T69 316T57 280Q55 278 41 278H27Q21 284 21 287Z"></path>
</defs>
<g stroke="currentColor" fill="currentColor" stroke-width="0" transform="matrix(1 0 0 -1 0 0)">
 <use xlink:href="#E1-MJMAIN-7C" x="0" y="0"></use>
 <use xlink:href="#E1-MJCAL-58" x="278" y="0"></use>
 <use xlink:href="#E1-MJMAIN-7C" x="1086" y="0"></use>
 <use xlink:href="#E1-MJMAIN-3E" x="1642" y="0"></use>
 <use xlink:href="#E1-MJMAIN-32" x="2698" y="0"></use>
 <use xlink:href="#E1-MJMATHI-6D" x="3199" y="0"></use>
</g>
</svg>